<?xml version="1.0" encoding="UTF-8"?>
<svg xmlns="http://www.w3.org/2000/svg" xmlns:xlink="http://www.w3.org/1999/xlink" width="40pt" height="40pt" viewBox="0 0 40 40" version="1.1">
<g id="surface1">
<path style=" stroke:none;fill-rule:nonzero;fill:rgb(97.647059%,84.313725%,28.627451%);fill-opacity:1;" d="M 34 14.667969 C 34 23.335938 20 39.335938 20 39.335938 C 20 39.335938 6 23.335938 6 14.667969 C 6 6.933594 12.265625 0.667969 20 0.667969 C 27.730469 0.667969 34 6.933594 34 14.667969 Z M 34 14.667969 "/>
<path style=" stroke:none;fill-rule:nonzero;fill:rgb(97.647059%,84.313725%,28.627451%);fill-opacity:1;" d="M 34 14.667969 C 34 23.335938 20 39.335938 20 39.335938 C 20 39.335938 19.53125 38.800781 18.773438 37.882812 C 20.050781 36.394531 32.667969 21.5625 32.667969 13.332031 C 32.675781 9.945312 31.445312 6.671875 29.207031 4.125 C 32.257812 6.777344 34.007812 10.625 34 14.667969 Z M 34 14.667969 "/>
<path style=" stroke:none;fill-rule:nonzero;fill:rgb(100%,100%,100%);fill-opacity:1;" d="M 31.332031 14.667969 C 31.332031 20.925781 26.257812 26 20 26 C 13.738281 26 8.664062 20.925781 8.664062 14.667969 C 8.664062 8.40625 13.738281 3.332031 20 3.332031 C 26.257812 3.332031 31.332031 8.40625 31.332031 14.667969 Z M 31.332031 14.667969 "/>
<path style=" stroke:none;fill-rule:nonzero;fill:rgb(100%,100%,100%);fill-opacity:1;" d="M 31.332031 14.667969 C 31.332031 19.425781 28.363281 23.675781 23.898438 25.3125 C 19.429688 26.945312 14.417969 25.621094 11.34375 21.988281 C 15.84375 25.800781 22.515625 25.523438 26.6875 21.355469 C 30.855469 17.183594 31.132812 10.511719 27.320312 6.011719 C 29.867188 8.167969 31.335938 11.332031 31.332031 14.667969 Z M 31.332031 14.667969 "/>
<path style=" stroke:none;fill-rule:nonzero;fill:rgb(97.647059%,84.313725%,28.627451%);fill-opacity:1;" d="M 28.667969 10.667969 L 11.332031 10.667969 L 20 5.941406 Z M 28.667969 10.667969 "/>
<path style=" stroke:none;fill-rule:nonzero;fill:rgb(97.647059%,84.313725%,28.627451%);fill-opacity:1;" d="M 13.332031 10.667969 L 26.667969 10.667969 L 26.667969 20.667969 L 13.332031 20.667969 Z M 13.332031 10.667969 "/>
<path style=" stroke:none;fill-rule:nonzero;fill:rgb(97.647059%,84.313725%,28.627451%);fill-opacity:1;" d="M 26.667969 10.667969 L 26.667969 20.667969 L 13.332031 20.667969 L 13.332031 19.335938 L 25.332031 19.335938 L 25.332031 10.667969 Z M 26.667969 10.667969 "/>
<path style=" stroke:none;fill-rule:nonzero;fill:rgb(97.647059%,84.313725%,28.627451%);fill-opacity:1;" d="M 17.332031 14.667969 L 22.667969 14.667969 L 22.667969 20.667969 L 17.332031 20.667969 Z M 17.332031 14.667969 "/>
<path style=" stroke:none;fill-rule:nonzero;fill:rgb(97.647059%,84.313725%,28.627451%);fill-opacity:1;" d="M 28.667969 10.667969 L 11.332031 10.667969 L 13.777344 9.332031 L 26.21875 9.332031 Z M 28.667969 10.667969 "/>
<path style=" stroke:none;fill-rule:nonzero;fill:rgb(97.647059%,84.313725%,28.627451%);fill-opacity:1;" d="M 22.667969 14.667969 L 22.667969 20.667969 L 17.332031 20.667969 L 17.332031 19.335938 L 21.332031 19.335938 L 21.332031 14.667969 Z M 22.667969 14.667969 "/>
<path style=" stroke:none;fill-rule:nonzero;fill:rgb(0%,0%,0%);fill-opacity:1;" d="M 20 2.667969 C 13.371094 2.667969 8 8.039062 8 14.667969 C 8 21.292969 13.371094 26.667969 20 26.667969 C 26.625 26.667969 32 21.292969 32 14.667969 C 31.992188 8.042969 26.625 2.675781 20 2.667969 Z M 20 25.335938 C 14.109375 25.335938 9.332031 20.558594 9.332031 14.667969 C 9.332031 8.777344 14.109375 4 20 4 C 25.890625 4 30.667969 8.777344 30.667969 14.667969 C 30.660156 20.554688 25.886719 25.328125 20 25.335938 Z M 20 25.335938 "/>
<path style=" stroke:none;fill-rule:nonzero;fill:rgb(0%,0%,0%);fill-opacity:1;" d="M 28.984375 10.082031 L 20.320312 5.355469 C 20.121094 5.246094 19.878906 5.246094 19.679688 5.355469 L 11.011719 10.082031 C 10.746094 10.226562 10.609375 10.535156 10.6875 10.832031 C 10.761719 11.128906 11.027344 11.332031 11.332031 11.332031 L 12.664062 11.332031 L 12.664062 20.667969 C 12.664062 21.035156 12.964844 21.335938 13.332031 21.335938 L 26.667969 21.335938 C 27.035156 21.335938 27.332031 21.035156 27.332031 20.667969 L 27.332031 11.332031 L 28.667969 11.332031 C 28.972656 11.332031 29.238281 11.128906 29.3125 10.832031 C 29.386719 10.535156 29.253906 10.226562 28.984375 10.082031 Z M 20 6.699219 L 26.050781 10 L 13.945312 10 Z M 22 20 L 18 20 L 18 15.332031 L 22 15.332031 Z M 26 20 L 23.332031 20 L 23.332031 14.667969 C 23.332031 14.300781 23.035156 14 22.667969 14 L 17.332031 14 C 16.964844 14 16.664062 14.300781 16.664062 14.667969 L 16.664062 20 L 14 20 L 14 11.332031 L 26 11.332031 Z M 26 20 "/>
<path style=" stroke:none;fill-rule:nonzero;fill:rgb(0%,0%,0%);fill-opacity:1;" d="M 20 0 C 11.902344 0.0078125 5.339844 6.570312 5.332031 14.667969 C 5.332031 23.484375 18.917969 39.113281 19.496094 39.773438 C 19.625 39.917969 19.804688 40 19.996094 40 C 20.1875 40 20.371094 39.917969 20.496094 39.773438 C 21.078125 39.113281 34.667969 23.484375 34.667969 14.667969 C 34.65625 6.570312 28.097656 0.0078125 20 0 Z M 20 38.308594 C 17.515625 35.359375 6.664062 22.066406 6.664062 14.667969 C 6.664062 7.304688 12.636719 1.332031 20 1.332031 C 27.363281 1.332031 33.332031 7.304688 33.332031 14.667969 C 33.332031 22.066406 22.484375 35.359375 20 38.308594 Z M 20 38.308594 "/>
</g>
</svg>
