<?xml version="1.0" encoding="UTF-8" standalone="no"?>
<!DOCTYPE svg PUBLIC "-//W3C//DTD SVG 1.1//EN" "http://www.w3.org/Graphics/SVG/1.1/DTD/svg11.dtd">
<svg version="1.1" xmlns="http://www.w3.org/2000/svg" xmlns:xlink="http://www.w3.org/1999/xlink" preserveAspectRatio="xMidYMid meet" viewBox="0 0 640 640" width="640" height="640"><defs><path d="M92.91 598.71C92.91 592.51 92.91 589.07 92.91 588.38C92.91 565.61 74.39 547.09 51.62 547.09C50.93 547.09 47.49 547.09 41.29 547.09L41.29 268.39L289.03 268.39L289.03 547.1C282.84 547.1 279.4 547.1 278.71 547.1C255.94 547.1 237.42 565.61 237.42 588.39C237.42 589.07 237.42 592.51 237.42 598.71L237.42 598.71L92.91 598.71Z" id="b185xBu9Yw"></path><path d="M405.12 0.1L406.36 0.23L407.6 0.41L408.81 0.63L410.01 0.9L411.19 1.22L412.36 1.58L413.5 1.99L414.62 2.44L415.72 2.93L416.8 3.46L417.85 4.03L418.88 4.65L419.88 5.3L420.86 5.98L421.8 6.71L422.72 7.46L423.61 8.26L424.47 9.08L425.29 9.94L426.08 10.83L426.84 11.74L427.56 12.69L428.25 13.67L428.9 14.67L429.51 15.7L430.09 16.75L430.62 17.83L431.11 18.93L431.56 20.05L431.97 21.19L432.33 22.35L432.65 23.54L432.92 24.74L433.14 25.95L433.32 27.18L433.44 28.43L433.52 29.69L433.55 30.97L433.55 258.06L433.53 258.91L433.47 259.76L433.37 260.61L433.24 261.45L433.06 262.28L432.85 263.11L432.6 263.94L432.31 264.77L431.98 265.59L431.61 266.4L431.21 267.21L430.76 268.02L430.28 268.83L429.75 269.63L429.19 270.42L428.59 271.21L427.95 272L427.28 272.79L426.56 273.57L425.81 274.34L425.01 275.11L424.18 275.88L423.31 276.65L422.4 277.41L421.45 278.16L420.46 278.92L419.44 279.66L418.37 280.41L417.27 281.15L416.13 281.89L414.95 282.62L413.73 283.35L412.47 284.07L411.17 284.79L409.84 285.51L408.46 286.22L407.05 286.93L405.6 287.63L404.11 288.33L402.58 289.03L330.32 289.03L330.32 640L0 640L0 30.97L0.03 29.69L0.11 28.43L0.23 27.18L0.41 25.95L0.63 24.74L0.9 23.54L1.22 22.35L1.58 21.19L1.99 20.05L2.44 18.93L2.93 17.83L3.46 16.75L4.04 15.7L4.65 14.67L5.3 13.67L5.99 12.69L6.71 11.74L7.47 10.83L8.26 9.94L9.08 9.08L9.94 8.26L10.83 7.46L11.75 6.71L12.69 5.98L13.67 5.3L14.67 4.65L15.7 4.03L16.75 3.46L17.83 2.93L18.93 2.44L20.05 1.99L21.19 1.58L22.36 1.22L23.54 0.9L24.74 0.63L25.96 0.41L27.19 0.23L28.44 0.1L29.7 0.03L30.97 0L402.58 0L403.85 0.03L405.12 0.1ZM309.68 619.35L309.68 289.03L234.09 289.03L235.21 290.3L236.31 291.59L237.38 292.9L238.43 294.22L239.46 295.56L240.46 296.92L241.43 298.3L242.38 299.69L243.31 301.1L244.21 302.53L245.08 303.97L245.93 305.43L246.75 306.9L247.54 308.38L248.31 309.88L249.05 311.4L249.76 312.92L250.45 314.46L251.11 316.02L251.74 317.58L252.34 319.16L252.91 320.75L253.46 322.35L253.97 323.96L254.46 325.59L254.91 327.22L255.34 328.86L255.74 330.51L256.1 332.17L256.44 333.85L256.74 335.52L257.02 337.21L257.26 338.91L257.47 340.61L257.65 342.32L257.8 344.04L257.91 345.76L258 347.49L258.05 349.23L258.06 350.97L257.98 354.79L257.75 358.57L257.37 362.32L256.84 366.01L256.17 369.66L255.36 373.26L254.41 376.81L253.32 380.3L252.1 383.73L250.75 387.09L249.28 390.39L247.68 393.62L245.96 396.78L244.13 399.87L242.18 402.87L240.12 405.8L237.95 408.64L235.67 411.39L233.3 414.06L230.82 416.63L228.25 419.1L225.59 421.48L222.83 423.75L219.99 425.92L217.07 427.98L214.06 429.93L210.98 431.77L207.82 433.48L204.59 435.08L201.29 436.56L197.92 437.91L194.5 439.13L191.01 440.21L187.46 441.17L183.86 441.98L180.21 442.65L176.51 443.18L172.77 443.56L168.98 443.79L165.16 443.87L161.34 443.79L157.55 443.56L153.81 443.18L150.11 442.65L146.46 441.98L142.86 441.17L139.32 440.21L135.83 439.13L132.4 437.91L129.03 436.56L125.73 435.08L122.5 433.48L119.34 431.77L116.26 429.93L113.25 427.98L110.33 425.92L107.49 423.75L104.73 421.48L102.07 419.1L99.5 416.63L97.02 414.05L94.65 411.39L92.37 408.64L90.21 405.8L88.15 402.87L86.2 399.86L84.36 396.78L82.64 393.62L81.05 390.39L79.57 387.09L78.22 383.73L77 380.3L75.92 376.81L74.96 373.26L74.15 369.66L73.48 366.01L72.95 362.32L72.57 358.57L72.34 354.79L72.26 350.97L72.28 349.23L72.33 347.49L72.41 345.76L72.52 344.04L72.67 342.32L72.85 340.61L73.06 338.91L73.3 337.21L73.58 335.52L73.88 333.85L74.22 332.17L74.58 330.51L74.98 328.86L75.41 327.22L75.86 325.59L76.35 323.96L76.86 322.35L77.41 320.75L77.98 319.16L78.58 317.58L79.21 316.02L79.87 314.46L80.56 312.92L81.27 311.4L82.01 309.88L82.78 308.38L83.57 306.9L84.39 305.43L85.24 303.97L86.12 302.53L87.01 301.1L87.94 299.69L88.89 298.3L89.86 296.92L90.86 295.56L91.89 294.22L92.94 292.9L94.01 291.59L95.11 290.3L96.23 289.03L30.97 289.03L30.7 289.03L30.43 289.03L30.15 289.02L29.88 289.01L29.61 289L29.35 288.98L29.08 288.96L28.81 288.94L28.54 288.92L28.28 288.9L28.01 288.87L27.75 288.84L27.49 288.81L27.22 288.77L26.96 288.73L26.7 288.7L26.44 288.65L26.18 288.61L25.92 288.56L25.66 288.51L25.4 288.46L25.15 288.41L24.89 288.36L24.63 288.3L24.38 288.24L24.13 288.18L23.87 288.12L23.62 288.05L23.37 287.98L23.12 287.92L22.87 287.84L22.62 287.77L22.37 287.7L22.12 287.62L21.87 287.54L21.63 287.46L21.38 287.38L21.14 287.3L20.89 287.22L20.65 287.13L20.65 619.35L309.68 619.35ZM126.59 290.03L125.01 291.06L123.45 292.14L121.93 293.25L120.44 294.39L118.98 295.57L117.56 296.79L116.17 298.04L114.82 299.32L113.5 300.63L112.22 301.97L110.98 303.35L109.77 304.75L108.6 306.19L107.47 307.65L106.37 309.14L105.32 310.65L104.3 312.19L103.32 313.76L102.39 315.35L101.49 316.96L100.64 318.59L99.83 320.25L99.06 321.93L98.33 323.63L97.65 325.34L97.01 327.08L96.42 328.83L95.87 330.6L95.36 332.39L94.9 334.19L94.49 336.01L94.12 337.84L93.8 339.68L93.53 341.53L93.31 343.4L93.13 345.28L93.01 347.17L92.93 349.06L92.91 350.97L92.97 353.94L93.15 356.88L93.44 359.8L93.86 362.67L94.38 365.51L95.01 368.31L95.75 371.07L96.6 373.78L97.55 376.45L98.6 379.07L99.74 381.63L100.99 384.15L102.32 386.6L103.75 389L105.27 391.34L106.87 393.61L108.56 395.82L110.33 397.97L112.17 400.04L114.1 402.04L116.1 403.96L118.17 405.81L120.31 407.58L122.52 409.27L124.8 410.87L127.14 412.38L129.53 413.81L131.99 415.15L134.5 416.39L137.07 417.54L139.69 418.59L142.35 419.54L145.07 420.38L147.82 421.12L150.62 421.75L153.46 422.28L156.34 422.69L159.25 422.99L162.19 423.17L165.17 423.23L168.14 423.17L171.08 422.99L173.99 422.69L176.87 422.28L179.71 421.75L182.51 421.12L185.26 420.38L187.98 419.54L190.64 418.59L193.26 417.54L195.83 416.39L198.34 415.15L200.8 413.81L203.2 412.38L205.53 410.87L207.81 409.27L210.02 407.58L212.16 405.81L214.23 403.96L216.23 402.04L218.16 400.04L220 397.97L221.77 395.82L223.46 393.61L225.06 391.34L226.58 389L228.01 386.6L229.34 384.15L230.59 381.63L231.73 379.07L232.78 376.45L233.73 373.78L234.58 371.07L235.32 368.31L235.95 365.51L236.47 362.67L236.89 359.8L237.18 356.88L237.36 353.94L237.42 350.97L237.4 349.06L237.32 347.17L237.2 345.28L237.02 343.4L236.8 341.53L236.53 339.68L236.21 337.84L235.84 336.01L235.43 334.19L234.97 332.39L234.47 330.6L233.91 328.83L233.32 327.08L232.68 325.34L232 323.63L231.27 321.93L230.5 320.25L229.69 318.59L228.84 316.96L227.94 315.35L227.01 313.76L226.03 312.19L225.01 310.65L223.96 309.14L222.87 307.65L221.73 306.19L220.56 304.75L219.35 303.35L218.11 301.97L216.83 300.63L215.51 299.32L214.16 298.04L212.77 296.79L211.35 295.57L209.89 294.39L208.4 293.25L206.88 292.14L205.33 291.06L203.74 290.03L202.12 289.03L128.21 289.03L126.59 290.03ZM20.65 258.06L20.66 258.49L20.68 258.91L20.73 259.33L20.78 259.74L20.86 260.14L20.95 260.54L21.06 260.94L21.18 261.32L21.31 261.7L21.46 262.08L21.62 262.44L21.8 262.8L21.99 263.15L22.2 263.5L22.41 263.83L22.64 264.16L22.88 264.47L23.14 264.78L23.4 265.07L23.67 265.36L23.96 265.63L24.26 265.9L24.56 266.15L24.88 266.39L25.2 266.62L25.54 266.84L25.88 267.04L26.23 267.23L26.59 267.41L26.95 267.58L27.33 267.73L27.71 267.86L28.1 267.98L28.49 268.09L28.89 268.18L29.3 268.25L29.71 268.31L30.12 268.35L30.55 268.38L30.97 268.39L402.58 268.39L403.01 268.38L403.43 268.35L403.84 268.31L404.26 268.25L404.66 268.18L405.06 268.09L405.46 267.98L405.84 267.86L406.22 267.73L406.6 267.58L406.97 267.41L407.32 267.23L407.68 267.04L408.02 266.84L408.35 266.62L408.68 266.39L408.99 266.15L409.3 265.9L409.59 265.63L409.88 265.36L410.15 265.07L410.42 264.78L410.67 264.47L410.91 264.16L411.14 263.83L411.36 263.5L411.56 263.15L411.75 262.8L411.93 262.44L412.09 262.08L412.24 261.7L412.38 261.32L412.5 260.94L412.6 260.54L412.69 260.14L412.77 259.74L412.83 259.33L412.87 258.91L412.9 258.49L412.9 258.06L412.9 123.87L20.65 123.87L20.65 258.06ZM20.65 103.23L412.9 103.23L412.9 72.26L20.65 72.26L20.65 103.23ZM30.55 20.65L30.12 20.68L29.71 20.72L29.3 20.78L28.89 20.86L28.49 20.95L28.1 21.05L27.71 21.17L27.33 21.31L26.95 21.46L26.59 21.62L26.23 21.8L25.88 21.99L25.53 22.2L25.2 22.41L24.87 22.64L24.56 22.88L24.25 23.13L23.96 23.4L23.67 23.67L23.4 23.96L23.13 24.26L22.88 24.56L22.64 24.88L22.41 25.2L22.19 25.54L21.99 25.88L21.8 26.23L21.62 26.59L21.46 26.96L21.31 27.33L21.17 27.71L21.05 28.1L20.95 28.49L20.86 28.89L20.78 29.3L20.72 29.71L20.68 30.12L20.66 30.54L20.65 30.97L20.65 51.61L412.9 51.61L412.9 30.97L412.9 30.54L412.87 30.12L412.83 29.71L412.77 29.3L412.69 28.89L412.6 28.49L412.5 28.1L412.38 27.71L412.24 27.33L412.09 26.96L411.93 26.59L411.75 26.23L411.56 25.88L411.36 25.54L411.14 25.2L410.91 24.88L410.67 24.56L410.42 24.26L410.15 23.96L409.88 23.67L409.59 23.4L409.3 23.13L408.99 22.88L408.68 22.64L408.35 22.41L408.02 22.2L407.68 21.99L407.32 21.8L406.97 21.62L406.6 21.46L406.22 21.31L405.84 21.17L405.46 21.05L405.06 20.95L404.66 20.86L404.26 20.78L403.84 20.72L403.43 20.68L403.01 20.65L402.58 20.65L30.97 20.65L30.55 20.65Z" id="a4cUupqlBO"></path><path d="M354.35 165.3L356.01 165.47L357.66 165.7L359.28 166L360.88 166.36L362.46 166.79L364.01 167.27L365.53 167.81L367.03 168.41L368.49 169.07L369.93 169.78L371.33 170.54L372.7 171.35L374.04 172.22L375.34 173.14L376.6 174.1L377.83 175.11L379.01 176.17L380.15 177.27L381.25 178.41L382.31 179.59L383.32 180.82L384.28 182.08L385.2 183.38L386.07 184.72L386.88 186.09L387.64 187.49L388.35 188.93L389.01 190.39L389.61 191.89L390.15 193.41L390.63 194.96L391.06 196.54L391.42 198.14L391.72 199.76L391.95 201.4L392.12 203.07L392.22 204.75L392.26 206.45L392.22 208.15L392.12 209.83L391.95 211.5L391.72 213.14L391.42 214.76L391.06 216.36L390.63 217.94L390.15 219.49L389.61 221.01L389.01 222.51L388.35 223.98L387.64 225.41L386.88 226.82L386.07 228.19L385.2 229.52L384.28 230.82L383.32 232.09L382.31 233.31L381.25 234.49L380.15 235.64L379.01 236.74L377.83 237.79L376.6 238.8L375.34 239.77L374.04 240.68L372.7 241.55L371.33 242.36L369.93 243.13L368.49 243.84L367.03 244.49L365.53 245.09L364.01 245.63L362.46 246.12L360.88 246.54L359.28 246.9L357.66 247.2L356.01 247.43L354.35 247.6L352.67 247.71L350.97 247.74L350.4 247.74L349.84 247.72L349.28 247.7L348.72 247.68L348.17 247.64L347.61 247.6L347.06 247.55L346.51 247.49L345.96 247.42L345.42 247.34L344.88 247.26L344.34 247.17L343.8 247.08L343.27 246.97L342.74 246.86L342.21 246.75L341.68 246.62L341.16 246.49L340.63 246.35L340.12 246.21L339.6 246.06L339.09 245.9L338.58 245.73L338.07 245.56L337.56 245.38L337.06 245.2L336.56 245.01L336.07 244.81L335.57 244.61L335.08 244.4L334.6 244.19L334.11 243.97L333.63 243.74L333.15 243.51L332.68 243.28L332.21 243.03L331.74 242.79L331.27 242.53L330.81 242.27L330.35 242.01L329.88 242.28L329.41 242.55L328.93 242.81L328.44 243.07L327.96 243.32L327.47 243.56L326.98 243.79L326.49 244.02L326 244.25L325.5 244.46L325 244.67L324.5 244.87L323.99 245.07L323.48 245.26L322.97 245.44L322.46 245.62L321.95 245.79L321.43 245.95L320.92 246.11L320.4 246.26L319.87 246.4L319.35 246.54L318.83 246.66L318.3 246.79L317.77 246.9L317.24 247.01L316.71 247.11L316.17 247.2L315.64 247.29L315.1 247.36L314.57 247.44L314.03 247.5L313.49 247.56L312.95 247.6L312.4 247.65L311.86 247.68L311.32 247.71L310.77 247.73L310.23 247.74L309.68 247.74L307.98 247.71L306.3 247.6L304.63 247.43L302.99 247.2L301.37 246.9L299.77 246.54L298.19 246.12L296.64 245.63L295.12 245.09L293.62 244.49L292.15 243.84L290.72 243.13L289.31 242.36L287.94 241.55L286.61 240.68L285.31 239.77L284.04 238.8L282.82 237.79L281.64 236.74L280.49 235.64L279.39 234.49L278.34 233.31L277.33 232.09L276.36 230.82L275.45 229.52L274.58 228.19L273.77 226.82L273 225.41L272.29 223.98L271.64 222.51L271.04 221.01L270.5 219.49L270.01 217.94L269.59 216.36L269.23 214.76L268.93 213.14L268.69 211.5L268.53 209.83L268.42 208.15L268.39 206.45L268.42 204.75L268.53 203.07L268.69 201.4L268.93 199.76L269.23 198.14L269.59 196.54L270.01 194.96L270.5 193.41L271.04 191.89L271.64 190.39L272.29 188.93L273 187.49L273.77 186.09L274.58 184.72L275.45 183.38L276.36 182.08L277.33 180.82L278.34 179.59L279.39 178.41L280.49 177.27L281.64 176.17L282.82 175.11L284.04 174.1L285.31 173.14L286.61 172.22L287.94 171.35L289.31 170.54L290.72 169.78L292.15 169.07L293.62 168.41L295.12 167.81L296.64 167.27L298.19 166.79L299.77 166.36L301.37 166L302.99 165.7L304.63 165.47L306.3 165.3L307.98 165.2L309.68 165.16L310.23 165.16L310.77 165.18L311.32 165.2L311.86 165.22L312.4 165.26L312.95 165.3L313.49 165.35L314.03 165.4L314.57 165.47L315.11 165.54L315.64 165.62L316.18 165.7L316.71 165.79L317.24 165.9L317.77 166L318.3 166.12L318.83 166.24L319.35 166.37L319.88 166.5L320.4 166.64L320.92 166.79L321.44 166.95L321.95 167.11L322.47 167.28L322.98 167.46L323.49 167.64L324 167.83L324.5 168.03L325 168.23L325.5 168.44L326 168.66L326.49 168.88L326.99 169.11L327.48 169.34L327.96 169.59L328.45 169.84L328.93 170.09L329.41 170.35L329.88 170.62L330.35 170.89L330.81 170.63L331.27 170.37L331.74 170.12L332.21 169.87L332.68 169.62L333.15 169.39L333.63 169.16L334.11 168.93L334.6 168.71L335.08 168.5L335.57 168.29L336.07 168.09L336.56 167.89L337.06 167.7L337.56 167.52L338.07 167.34L338.58 167.17L339.09 167L339.6 166.85L340.12 166.69L340.63 166.55L341.16 166.41L341.68 166.28L342.21 166.15L342.74 166.04L343.27 165.93L343.8 165.82L344.34 165.73L344.88 165.64L345.42 165.56L345.96 165.48L346.51 165.42L347.06 165.36L347.61 165.31L348.17 165.26L348.72 165.23L349.28 165.2L349.84 165.18L350.4 165.16L350.97 165.16L352.67 165.2L354.35 165.3ZM306.76 186.01L305.35 186.26L303.97 186.61L302.63 187.05L301.33 187.57L300.08 188.18L298.87 188.87L297.72 189.63L296.62 190.47L295.58 191.38L294.61 192.35L293.7 193.39L292.86 194.49L292.09 195.64L291.41 196.85L290.8 198.1L290.27 199.4L289.84 200.74L289.49 202.12L289.24 203.53L289.09 204.98L289.03 206.45L289.09 207.92L289.24 209.37L289.49 210.78L289.84 212.16L290.27 213.5L290.8 214.8L291.41 216.05L292.09 217.26L292.86 218.41L293.7 219.51L294.61 220.55L295.58 221.52L296.62 222.43L297.72 223.27L298.87 224.04L300.08 224.72L301.33 225.33L302.63 225.86L303.97 226.29L305.35 226.64L306.76 226.89L308.21 227.04L309.68 227.1L309.91 227.09L310.15 227.09L310.38 227.08L310.62 227.07L310.85 227.05L311.08 227.03L311.32 227.01L311.55 226.98L311.78 226.95L312.01 226.92L312.24 226.89L312.47 226.85L312.7 226.81L312.93 226.77L313.16 226.72L313.39 226.68L313.62 226.63L313.85 226.57L314.08 226.52L314.3 226.46L314.53 226.4L314.76 226.34L314.98 226.28L314.56 225.51L314.16 224.72L313.77 223.93L313.39 223.13L313.03 222.32L312.69 221.5L312.36 220.68L312.05 219.84L311.76 219L311.48 218.15L311.22 217.29L310.98 216.43L310.76 215.56L310.56 214.68L310.38 213.79L310.22 212.9L310.08 211.99L309.96 211.09L309.86 210.17L309.78 209.25L309.72 208.32L309.69 207.39L309.68 206.45L309.69 205.51L309.72 204.58L309.78 203.65L309.86 202.73L309.96 201.82L310.08 200.91L310.22 200.01L310.38 199.11L310.56 198.23L310.76 197.35L310.98 196.47L311.22 195.61L311.48 194.75L311.75 193.9L312.05 193.06L312.36 192.22L312.69 191.4L313.03 190.58L313.39 189.77L313.76 188.97L314.16 188.18L314.56 187.4L314.98 186.62L314.76 186.56L314.53 186.5L314.3 186.44L314.08 186.38L313.85 186.33L313.62 186.28L313.39 186.23L313.16 186.18L312.93 186.13L312.7 186.09L312.47 186.05L312.24 186.01L312.01 185.98L311.78 185.95L311.55 185.92L311.32 185.89L311.08 185.87L310.85 185.85L310.62 185.83L310.38 185.82L310.15 185.81L309.91 185.81L309.68 185.81L308.21 185.86L306.76 186.01ZM348.28 185.98L346.97 186.19L345.7 186.49L344.45 186.86L343.24 187.31L342.06 187.83L340.93 188.42L339.83 189.07L338.78 189.79L337.78 190.58L336.83 191.42L335.94 192.31L335.09 193.26L334.31 194.27L333.59 195.31L332.93 196.41L332.34 197.54L331.83 198.72L331.38 199.93L331.01 201.18L330.71 202.46L330.5 203.76L330.37 205.1L330.32 206.45L330.37 207.81L330.5 209.14L330.71 210.45L331.01 211.72L331.38 212.97L331.83 214.18L332.34 215.36L332.93 216.49L333.59 217.59L334.31 218.64L335.09 219.64L335.94 220.59L336.83 221.48L337.78 222.33L338.78 223.11L339.83 223.83L340.93 224.49L342.06 225.07L343.24 225.59L344.45 226.04L345.7 226.41L346.97 226.71L348.28 226.92L349.61 227.05L350.97 227.1L352.32 227.05L353.66 226.92L354.96 226.71L356.24 226.41L357.49 226.04L358.7 225.59L359.88 225.07L361.01 224.49L362.11 223.83L363.15 223.11L364.16 222.33L365.11 221.48L366 220.59L366.84 219.64L367.63 218.64L368.35 217.59L369 216.49L369.59 215.36L370.11 214.18L370.56 212.97L370.93 211.72L371.23 210.45L371.44 209.14L371.57 207.81L371.61 206.45L371.57 205.1L371.44 203.76L371.23 202.46L370.93 201.18L370.56 199.93L370.11 198.72L369.59 197.54L369 196.41L368.35 195.31L367.63 194.27L366.84 193.26L366 192.31L365.11 191.42L364.16 190.58L363.15 189.79L362.11 189.07L361.01 188.42L359.88 187.83L358.7 187.31L357.49 186.86L356.24 186.49L354.96 186.19L353.66 185.98L352.32 185.85L350.97 185.81L349.61 185.85L348.28 185.98Z" id="c2YSWIEgHi"></path><path d="M507.32 351.45L513.14 352.04L518.9 352.86L524.57 353.91L530.17 355.17L535.69 356.65L541.11 358.35L546.45 360.24L551.68 362.34L556.82 364.63L561.84 367.12L566.76 369.79L571.55 372.65L576.23 375.68L580.78 378.89L585.2 382.26L589.48 385.8L593.63 389.49L597.63 393.34L601.48 397.34L605.17 401.48L608.71 405.77L612.08 410.19L615.29 414.74L618.32 419.41L621.17 424.21L623.85 429.12L626.33 434.15L628.63 439.28L630.72 444.52L632.62 449.85L634.31 455.28L635.79 460.79L637.06 466.39L638.11 472.07L638.93 477.82L639.52 483.65L639.88 489.53L640 495.48L639.88 501.43L639.52 507.32L638.93 513.14L638.11 518.89L637.06 524.57L635.79 530.17L634.31 535.69L632.62 541.11L630.72 546.45L628.63 551.68L626.33 556.81L623.85 561.84L621.17 566.75L618.32 571.55L615.29 576.23L612.08 580.78L608.71 585.2L605.17 589.48L601.48 593.62L597.63 597.62L593.63 601.47L589.48 605.17L585.2 608.71L580.78 612.08L576.23 615.28L571.55 618.32L566.76 621.17L561.84 623.84L556.82 626.33L551.68 628.62L546.45 630.72L541.12 632.62L535.69 634.31L530.17 635.79L524.57 637.06L518.9 638.1L513.14 638.92L507.32 639.52L501.43 639.88L495.48 640L489.54 639.88L483.65 639.52L477.83 638.92L472.07 638.1L466.39 637.06L460.8 635.79L455.28 634.31L449.85 632.62L444.52 630.72L439.28 628.62L434.15 626.33L429.13 623.84L424.21 621.17L419.41 618.32L414.74 615.28L410.19 612.08L405.77 608.71L401.49 605.17L397.34 601.47L393.34 597.62L389.49 593.62L385.8 589.48L382.26 585.2L378.89 580.78L375.68 576.23L372.65 571.55L369.8 566.75L367.12 561.84L364.64 556.81L362.34 551.68L360.24 546.45L358.35 541.11L356.66 535.69L355.18 530.17L353.91 524.57L352.86 518.89L352.04 513.14L351.45 507.32L351.09 501.43L350.97 495.48L351.09 489.53L351.45 483.65L352.04 477.82L352.86 472.07L353.91 466.39L355.18 460.79L356.66 455.28L358.35 449.85L360.25 444.52L362.34 439.28L364.64 434.15L367.12 429.12L369.8 424.21L372.65 419.41L375.68 414.74L378.89 410.19L382.26 405.77L385.8 401.48L389.49 397.34L393.34 393.34L397.34 389.49L401.49 385.8L405.77 382.26L410.19 378.89L414.74 375.68L419.42 372.65L424.21 369.79L429.13 367.12L434.15 364.63L439.29 362.34L444.52 360.24L449.85 358.35L455.28 356.65L460.8 355.17L466.4 353.91L472.07 352.86L477.83 352.04L483.65 351.45L489.54 351.09L495.48 350.97L501.43 351.09L507.32 351.45ZM485.34 372.02L480.35 372.53L475.42 373.24L470.55 374.13L465.75 375.22L461.02 376.49L456.37 377.94L451.8 379.56L447.31 381.36L442.91 383.33L438.61 385.46L434.39 387.75L430.28 390.2L426.27 392.8L422.37 395.54L418.59 398.43L414.91 401.47L411.36 404.63L407.94 407.93L404.64 411.36L401.47 414.91L398.44 418.58L395.54 422.37L392.8 426.27L390.2 430.28L387.75 434.39L385.46 438.6L383.33 442.91L381.36 447.31L379.57 451.8L377.94 456.37L376.49 461.02L375.22 465.75L374.13 470.55L373.24 475.42L372.53 480.35L372.03 485.34L371.72 490.38L371.61 495.48L371.72 500.58L372.03 505.63L372.53 510.62L373.24 515.55L374.13 520.42L375.22 525.21L376.49 529.94L377.94 534.59L379.57 539.16L381.36 543.65L383.33 548.05L385.46 552.36L387.75 556.57L390.2 560.68L392.8 564.69L395.54 568.59L398.44 572.38L401.47 576.05L404.64 579.6L407.94 583.03L411.36 586.33L414.91 589.5L418.59 592.53L422.37 595.42L426.27 598.17L430.28 600.77L434.39 603.22L438.61 605.51L442.91 607.64L447.31 609.6L451.8 611.4L456.37 613.03L461.02 614.48L465.75 615.75L470.55 616.83L475.42 617.73L480.35 618.43L485.34 618.94L490.39 619.25L495.48 619.35L500.58 619.25L505.63 618.94L510.62 618.43L515.55 617.73L520.42 616.83L525.22 615.75L529.94 614.48L534.6 613.03L539.17 611.4L543.65 609.6L548.05 607.64L552.36 605.51L556.57 603.22L560.69 600.77L564.69 598.17L568.59 595.42L572.38 592.53L576.05 589.5L579.61 586.33L583.03 583.03L586.33 579.6L589.5 576.05L592.53 572.38L595.42 568.59L598.17 564.69L600.77 560.68L603.22 556.57L605.51 552.36L607.64 548.05L609.61 543.65L611.4 539.16L613.03 534.59L614.48 529.94L615.75 525.21L616.83 520.42L617.73 515.55L618.44 510.62L618.94 505.63L619.25 500.58L619.35 495.48L619.25 490.38L618.94 485.34L618.44 480.35L617.73 475.42L616.83 470.55L615.75 465.75L614.48 461.02L613.03 456.37L611.4 451.8L609.61 447.31L607.64 442.91L605.51 438.6L603.22 434.39L600.77 430.28L598.17 426.27L595.42 422.37L592.53 418.58L589.5 414.91L586.33 411.36L583.03 407.93L579.61 404.63L576.05 401.47L572.38 398.43L568.59 395.54L564.69 392.8L560.69 390.2L556.57 387.75L552.36 385.46L548.05 383.33L543.65 381.36L539.17 379.56L534.6 377.94L529.94 376.49L525.22 375.22L520.42 374.13L515.55 373.24L510.62 372.53L505.63 372.02L500.58 371.72L495.48 371.61L490.39 371.72L485.34 372.02Z" id="aYjy9Y9I"></path><path d="M505.81 412.9L505.81 392.26L485.16 392.26L485.16 412.9C482.06 412.9 480.34 412.9 480 412.9C454.39 412.9 433.55 433.74 433.55 459.35C433.55 484.96 454.39 505.81 480 505.81C483.1 505.81 507.87 505.81 510.97 505.81C525.2 505.81 536.77 517.39 536.77 531.61C536.77 545.84 525.2 557.42 510.97 557.42C507.87 557.42 483.1 557.42 480 557.42C465.76 557.42 454.19 545.84 454.19 531.61C454.19 531.27 454.19 529.55 454.19 526.45L433.55 526.45C433.55 529.55 433.55 531.27 433.55 531.61C433.55 557.22 454.39 578.06 480 578.06C480.34 578.06 482.06 578.06 485.16 578.06L485.16 598.71L505.81 598.71L505.81 578.06C508.9 578.06 510.62 578.06 510.97 578.06C536.58 578.06 557.42 557.22 557.42 531.61C557.42 506 536.58 485.16 510.97 485.16C507.87 485.16 483.1 485.16 480 485.16C465.77 485.16 454.19 473.58 454.19 459.35C454.19 445.13 465.77 433.54 480 433.54C483.1 433.54 507.87 433.54 510.97 433.54C525.2 433.54 536.77 445.13 536.77 459.35C536.77 459.7 536.77 461.42 536.77 464.51L557.42 464.51C557.42 461.42 557.42 459.7 557.42 459.35C557.42 433.74 536.58 412.9 510.97 412.9C510.28 412.9 508.56 412.9 505.81 412.9Z" id="c2lVSpBGat"></path><path d="M485.16 268.39L505.81 268.39L505.81 51.61L518.19 68.13L534.71 55.74L495.48 3.44L456.26 55.74L472.77 68.13L485.16 51.61L485.16 268.39Z" id="aN92gyi4z"></path><path d="M505.81 289.03C505.81 289.03 505.81 289.03 505.81 289.03C505.81 307.61 505.81 317.94 505.81 320C505.81 320 505.81 320 505.81 320C493.42 320 486.54 320 485.16 320C485.16 320 485.16 320 485.16 320C485.16 301.42 485.16 291.1 485.16 289.03C485.16 289.03 485.16 289.03 485.16 289.03C497.55 289.03 504.43 289.03 505.81 289.03Z" id="aOPbCtz3L"></path><path d="M588.39 299.35L609.03 299.35L609.03 113.55L621.42 130.07L637.93 117.68L598.71 65.37L559.48 117.68L576 130.07L588.39 113.55L588.39 299.35Z" id="a7yfx0ztJJ"></path><path d="M609.03 320C609.03 320 609.03 320 609.03 320C609.03 338.58 609.03 348.9 609.03 350.97C609.03 350.97 609.03 350.97 609.03 350.97C596.64 350.97 589.76 350.97 588.39 350.97C588.39 350.97 588.39 350.97 588.39 350.97C588.39 332.39 588.39 322.06 588.39 320C588.39 320 588.39 320 588.39 320C600.77 320 607.65 320 609.03 320Z" id="a1RkteBgM7"></path></defs><g><g><g><use xlink:href="#b185xBu9Yw" opacity="1" fill="#f9d749" fill-opacity="1"></use><g><use xlink:href="#b185xBu9Yw" opacity="1" fill-opacity="0" stroke="#000000" stroke-width="1" stroke-opacity="0"></use></g></g><g><use xlink:href="#a4cUupqlBO" opacity="1" fill="#000000" fill-opacity="1"></use><g><use xlink:href="#a4cUupqlBO" opacity="1" fill-opacity="0" stroke="#000000" stroke-width="1" stroke-opacity="0"></use></g></g><g><use xlink:href="#c2YSWIEgHi" opacity="1" fill="#000000" fill-opacity="1"></use><g><use xlink:href="#c2YSWIEgHi" opacity="1" fill-opacity="0" stroke="#000000" stroke-width="1" stroke-opacity="0"></use></g></g><g><use xlink:href="#aYjy9Y9I" opacity="1" fill="#000000" fill-opacity="1"></use><g><use xlink:href="#aYjy9Y9I" opacity="1" fill-opacity="0" stroke="#000000" stroke-width="1" stroke-opacity="0"></use></g></g><g><use xlink:href="#c2lVSpBGat" opacity="1" fill="#000000" fill-opacity="1"></use><g><use xlink:href="#c2lVSpBGat" opacity="1" fill-opacity="0" stroke="#000000" stroke-width="1" stroke-opacity="0"></use></g></g><g><use xlink:href="#aN92gyi4z" opacity="1" fill="#000000" fill-opacity="1"></use><g><use xlink:href="#aN92gyi4z" opacity="1" fill-opacity="0" stroke="#000000" stroke-width="1" stroke-opacity="0"></use></g></g><g><use xlink:href="#aOPbCtz3L" opacity="1" fill="#000000" fill-opacity="1"></use><g><use xlink:href="#aOPbCtz3L" opacity="1" fill-opacity="0" stroke="#000000" stroke-width="1" stroke-opacity="0"></use></g></g><g><use xlink:href="#a7yfx0ztJJ" opacity="1" fill="#000000" fill-opacity="1"></use><g><use xlink:href="#a7yfx0ztJJ" opacity="1" fill-opacity="0" stroke="#000000" stroke-width="1" stroke-opacity="0"></use></g></g><g><use xlink:href="#a1RkteBgM7" opacity="1" fill="#000000" fill-opacity="1"></use><g><use xlink:href="#a1RkteBgM7" opacity="1" fill-opacity="0" stroke="#000000" stroke-width="1" stroke-opacity="0"></use></g></g></g></g></svg>