<?xml version="1.0" encoding="UTF-8" standalone="no"?>
<!DOCTYPE svg PUBLIC "-//W3C//DTD SVG 1.1//EN" "http://www.w3.org/Graphics/SVG/1.1/DTD/svg11.dtd">
<svg version="1.1" xmlns="http://www.w3.org/2000/svg" xmlns:xlink="http://www.w3.org/1999/xlink" preserveAspectRatio="xMidYMid meet" viewBox="0 0 640 640" width="640" height="640"><defs><path d="M299.36 320C299.36 308.59 308.59 299.35 320 299.35C323.78 299.35 327.28 300.45 330.32 302.21C330.32 273.05 330.32 39.74 330.32 10.58C326.89 10.47 323.46 10.32 320 10.32C148.96 10.32 10.32 148.96 10.32 320C10.32 491.04 148.97 629.68 320 629.68C323.46 629.68 326.89 629.53 330.32 629.42C330.32 600.26 330.32 366.95 330.32 337.78C327.28 339.55 323.78 340.65 320 340.65C308.59 340.65 299.36 331.41 299.36 320Z" id="g4lCRvvafB"></path><path d="M639.31 341.33C639.76 334.29 640 327.1 640 320C637.94 320 621.42 320 619.35 320C619.35 326.71 619.14 333.37 618.71 339.97C622.83 340.24 637.25 341.19 639.31 341.33Z" id="bhGWEq8Lt"></path><path d="M79.78 531.21C89.01 541.66 98.96 551.58 109.38 560.69C110.74 559.14 121.61 546.7 122.97 545.15C113.23 536.63 103.91 527.33 95.27 517.55C92.17 520.28 81.33 529.84 79.78 531.21Z" id="d4mgPEnPxa"></path><path d="M178.8 607.07C179.71 605.22 187.01 590.4 187.92 588.54C176.27 582.8 164.87 576.24 154.03 568.99C153.27 570.14 149.45 575.87 142.58 586.18C158.42 596.02 170.49 602.98 178.8 607.07Z" id="e3SzIijJ2f"></path><path d="M257.9 633.88C258.3 631.85 261.49 615.64 261.88 613.62C249.09 611.11 236.38 607.72 224.07 603.55C223.63 604.86 221.43 611.38 217.47 623.11C235.3 628.5 248.78 632.08 257.9 633.88Z" id="kOnMczUo0"></path><path d="M585.95 498.01C593.69 486.46 600.75 474.28 606.91 461.82C605.07 460.91 590.27 453.58 588.42 452.67C582.65 464.31 576.05 475.71 568.8 486.52C572.23 488.82 584.24 496.86 585.95 498.01Z" id="a16iKWIZet"></path><path d="M6.26 382.85C8.99 396.47 12.66 410.05 17.16 423.21C19.11 422.55 34.74 417.21 36.7 416.55C32.49 404.22 29.05 391.52 26.5 378.8C22.45 379.61 8.28 382.45 6.26 382.85Z" id="axhH6vlHk"></path><path d="M54.27 498.01C55.98 496.86 69.68 487.65 71.39 486.5C64.14 475.7 57.53 464.34 51.75 452.7C50.52 453.32 44.35 456.38 33.26 461.89C42.09 478.29 49.09 490.32 54.27 498.01Z" id="c2MBQHKYqR"></path><path d="M299.11 639.35C305.93 639.78 312.82 640 319.75 640C326.82 640 333.95 639.77 340.89 639.32C340.76 637.26 339.68 620.78 339.54 618.72C326.62 619.56 313.36 619.57 300.43 618.74C300.16 622.86 299.24 637.29 299.11 639.35Z" id="b1D1HXEQfz"></path><path d="M623.06 423.21C627.53 410.07 631.19 396.47 633.91 382.8C631.88 382.4 615.68 379.17 613.65 378.76C611.11 391.55 607.7 404.25 603.5 416.56C607.41 417.89 621.1 422.55 623.06 423.21Z" id="b2Qz5DgpwR"></path><path d="M382.6 633.88C396.23 631.18 409.82 627.54 422.99 623.07C422.32 621.12 417 605.47 416.34 603.51C404.04 607.7 391.33 611.1 378.57 613.64C379.37 617.69 382.19 631.86 382.6 633.88Z" id="aRQiWvr8w"></path><path d="M530.89 560.69C541.32 551.56 551.27 541.61 560.45 531.16C558.9 529.8 546.5 518.89 544.95 517.53C536.35 527.31 527.04 536.61 517.29 545.17C520.01 548.27 529.53 559.14 530.89 560.69Z" id="bSvlbN36S"></path><path d="M461.56 607.07C473.99 600.93 486.16 593.89 497.73 586.15C496.59 584.43 487.4 570.71 486.26 568.99C475.43 576.23 464.04 582.81 452.42 588.56C454.25 592.26 460.65 605.22 461.56 607.07Z" id="h2V7TcpSVp"></path><path d="M320 20.65C373.11 20.65 424.56 34.6 470.02 61C468.02 61.79 458.02 65.79 440.03 72.99L447.7 92.16L505.81 68.92L505.81 10.32L485.16 10.32C485.16 31.79 485.16 43.72 485.16 46.1C435.38 16.01 378.65 0 320 0C143.56 0 0 143.56 0 320C0 327.1 0.24 334.29 0.69 341.32C2.75 341.18 19.23 340.1 21.29 339.97C20.86 333.37 20.65 326.71 20.65 320C20.65 154.93 154.93 20.65 320 20.65Z" id="b3EJwDC1Ax"></path><path d="M330.36 290.95L330.39 290.96L330.43 290.97L330.46 290.98L330.5 290.99L330.53 291L330.57 291.01L330.6 291.03L330.64 291.04L330.68 291.05L330.71 291.06L330.75 291.07L330.78 291.08L330.82 291.09L330.86 291.1L330.93 291.12L330.96 291.13L331.04 291.15L331.07 291.16L331.11 291.17L331.15 291.18L331.18 291.19L331.22 291.2L331.25 291.21L331.29 291.22L331.33 291.23L331.36 291.24L331.4 291.25L331.43 291.27L331.47 291.28L331.5 291.29L331.54 291.3L331.57 291.31L331.61 291.33L331.64 291.34L331.68 291.35L331.71 291.36L331.75 291.38L396.16 210.86L395.98 210.53L395.8 210.2L395.63 209.86L395.46 209.52L395.3 209.19L395.14 208.84L394.98 208.5L394.83 208.16L394.68 207.81L394.53 207.46L394.39 207.11L394.25 206.75L394.12 206.4L393.99 206.04L393.87 205.68L393.75 205.32L393.63 204.96L393.52 204.59L393.41 204.22L393.31 203.86L393.21 203.49L393.11 203.11L393.02 202.74L392.94 202.36L392.86 201.99L392.78 201.61L392.71 201.23L392.64 200.84L392.58 200.46L392.53 200.07L392.48 199.69L392.43 199.3L392.39 198.91L392.35 198.52L392.32 198.12L392.3 197.73L392.28 197.33L392.27 196.93L392.26 196.53L392.26 196.13L392.28 194.86L392.36 193.6L392.49 192.35L392.66 191.11L392.89 189.9L393.16 188.7L393.47 187.52L393.84 186.35L394.24 185.21L394.69 184.09L395.19 182.99L395.72 181.91L396.29 180.86L396.9 179.83L397.55 178.83L398.24 177.85L398.96 176.91L399.72 175.99L400.51 175.1L401.34 174.24L402.19 173.42L403.08 172.63L404 171.87L404.95 171.15L405.92 170.46L406.92 169.81L407.95 169.2L409.01 168.62L410.08 168.09L411.18 167.6L412.3 167.15L413.45 166.74L414.61 166.38L415.79 166.06L416.99 165.79L418.21 165.57L419.44 165.39L420.69 165.27L421.95 165.19L423.22 165.16L424.5 165.19L425.76 165.27L427.01 165.39L428.24 165.57L429.46 165.79L430.66 166.06L431.84 166.38L433 166.74L434.15 167.15L435.27 167.6L436.37 168.09L437.44 168.62L438.5 169.2L439.53 169.81L440.53 170.46L441.5 171.15L442.45 171.87L443.37 172.63L444.26 173.42L445.11 174.24L445.94 175.1L446.73 175.99L447.49 176.91L448.21 177.85L448.9 178.83L449.55 179.83L450.16 180.86L450.73 181.91L451.26 182.99L451.76 184.09L452.21 185.21L452.61 186.35L452.97 187.52L453.29 188.7L453.56 189.9L453.79 191.12L453.96 192.35L454.09 193.6L454.17 194.86L454.19 196.13L454.19 196.24L454.19 196.35L454.19 196.46L454.19 196.56L454.18 196.67L454.18 196.78L454.17 196.88L454.17 196.99L454.16 197.1L454.15 197.2L454.15 197.31L454.14 197.42L454.13 197.52L454.12 197.63L454.11 197.73L454.1 197.84L454.09 197.95L454.07 198.05L454.06 198.16L454.05 198.26L454.04 198.37L454.02 198.47L454.01 198.58L454 198.68L453.98 198.79L453.97 198.89L453.95 198.99L453.94 199.1L453.93 199.2L453.91 199.31L453.9 199.41L453.88 199.52L453.86 199.62L453.83 199.83L453.82 199.93L453.8 200.04L453.79 200.14L453.77 200.25L453.76 200.35L495.09 225.15L495.51 224.77L495.94 224.39L496.37 224.02L496.81 223.66L497.25 223.31L497.7 222.97L498.16 222.63L498.62 222.3L499.09 221.98L499.57 221.67L500.05 221.36L500.54 221.07L501.03 220.78L501.53 220.5L502.03 220.24L502.54 219.98L503.06 219.73L503.58 219.49L504.1 219.25L504.63 219.03L505.17 218.82L505.71 218.62L506.25 218.42L506.8 218.24L507.35 218.07L507.91 217.9L508.47 217.75L509.04 217.61L509.61 217.48L510.18 217.36L510.76 217.25L511.35 217.15L511.93 217.07L512.52 216.99L513.11 216.92L513.71 216.87L514.31 216.83L514.91 216.8L515.52 216.78L516.13 216.78L516.39 216.78L516.66 216.78L516.92 216.79L517.19 216.8L517.45 216.81L517.71 216.82L517.97 216.84L518.23 216.86L518.49 216.88L518.75 216.91L519.01 216.93L519.26 216.96L519.52 216.99L519.78 217.03L520.03 217.06L520.29 217.1L520.54 217.14L520.8 217.18L521.05 217.23L521.3 217.27L521.55 217.32L521.8 217.37L522.05 217.43L522.3 217.48L522.55 217.54L522.8 217.6L523.04 217.66L523.29 217.72L523.54 217.78L523.78 217.85L524.03 217.91L524.27 217.98L524.51 218.05L524.75 218.13L525 218.2L525.24 218.28L525.48 218.35L525.72 218.43L525.95 218.51L526.19 218.59L582.75 129.73L582.53 129.37L582.32 129.01L582.11 128.65L581.91 128.29L581.71 127.92L581.52 127.55L581.33 127.18L581.14 126.8L580.96 126.42L580.79 126.04L580.62 125.66L580.45 125.28L580.29 124.89L580.13 124.5L579.98 124.1L579.84 123.71L579.7 123.31L579.57 122.91L579.44 122.5L579.31 122.1L579.19 121.69L579.08 121.28L578.97 120.87L578.87 120.45L578.78 120.04L578.69 119.62L578.6 119.2L578.52 118.77L578.45 118.35L578.39 117.92L578.33 117.49L578.27 117.06L578.22 116.63L578.18 116.2L578.15 115.76L578.12 115.32L578.09 114.88L578.08 114.44L578.07 114L578.06 113.55L578.09 112.28L578.17 111.01L578.29 109.77L578.47 108.53L578.69 107.32L578.97 106.12L579.28 104.94L579.65 103.77L580.05 102.63L580.5 101.51L580.99 100.41L581.53 99.33L582.1 98.28L582.71 97.25L583.36 96.25L584.05 95.27L584.77 94.33L585.53 93.41L586.32 92.52L587.15 91.66L588 90.84L588.89 90.05L589.81 89.29L590.76 88.57L591.73 87.88L592.73 87.23L593.76 86.62L594.81 86.04L595.89 85.51L596.99 85.02L598.11 84.57L599.26 84.16L600.42 83.8L601.6 83.48L602.8 83.21L604.02 82.99L605.25 82.81L606.5 82.68L607.76 82.61L609.03 82.58L610.31 82.61L611.57 82.68L612.82 82.81L614.05 82.99L615.27 83.21L616.47 83.48L617.65 83.8L618.81 84.16L619.95 84.57L621.07 85.02L622.17 85.51L623.25 86.04L624.3 86.62L625.33 87.23L626.33 87.88L627.31 88.56L628.26 89.29L629.17 90.04L630.06 90.84L630.92 91.66L631.74 92.52L632.54 93.41L633.29 94.32L634.02 95.27L634.7 96.25L635.35 97.25L635.97 98.28L636.54 99.33L637.07 100.41L637.56 101.51L638.01 102.63L638.42 103.77L638.78 104.93L639.1 106.12L639.37 107.32L639.59 108.53L639.77 109.76L639.9 111.01L639.97 112.27L640 113.55L639.97 114.82L639.9 116.08L639.77 117.33L639.59 118.56L639.37 119.78L639.1 120.98L638.78 122.16L638.42 123.33L638.01 124.47L637.56 125.59L637.07 126.69L636.54 127.77L635.96 128.82L635.35 129.85L634.7 130.85L634.02 131.83L633.29 132.77L632.54 133.69L631.74 134.58L630.92 135.44L630.06 136.26L629.17 137.05L628.25 137.81L627.31 138.53L626.33 139.22L625.33 139.87L624.3 140.48L623.25 141.06L622.17 141.59L621.07 142.08L619.95 142.53L618.81 142.94L617.65 143.3L616.46 143.62L615.26 143.89L614.05 144.11L612.81 144.29L611.57 144.41L610.31 144.49L609.03 144.52L608.77 144.52L608.5 144.51L608.24 144.51L607.97 144.5L607.71 144.48L607.45 144.47L607.19 144.45L606.93 144.43L606.67 144.41L606.41 144.39L606.15 144.36L605.89 144.33L605.64 144.3L605.38 144.27L605.13 144.23L604.87 144.19L604.62 144.15L604.36 144.11L604.11 144.07L603.86 144.02L603.61 143.97L603.36 143.92L603.11 143.87L602.86 143.81L602.61 143.76L602.36 143.7L602.12 143.64L601.87 143.58L601.62 143.51L601.38 143.45L601.13 143.38L600.89 143.31L600.65 143.24L600.41 143.17L600.16 143.09L599.92 143.02L599.68 142.94L599.44 142.86L599.21 142.78L598.97 142.7L542.41 231.57L542.63 231.92L542.84 232.28L543.05 232.64L543.25 233.01L543.45 233.37L543.65 233.74L543.84 234.12L544.02 234.49L544.2 234.87L544.38 235.25L544.55 235.63L544.71 236.02L544.87 236.41L545.03 236.8L545.18 237.19L545.32 237.59L545.46 237.99L545.6 238.39L545.73 238.79L545.85 239.19L545.97 239.6L546.08 240.01L546.19 240.42L546.29 240.84L546.39 241.26L546.48 241.67L546.56 242.1L546.64 242.52L546.71 242.94L546.78 243.37L546.84 243.8L546.89 244.23L546.94 244.66L546.98 245.1L547.02 245.53L547.05 245.97L547.07 246.41L547.08 246.85L547.09 247.3L547.1 247.74L547.07 249.02L547 250.28L546.87 251.53L546.69 252.76L546.47 253.98L546.2 255.18L545.88 256.36L545.52 257.52L545.11 258.66L544.66 259.78L544.17 260.88L543.64 261.96L543.06 263.01L542.45 264.04L541.8 265.04L541.11 266.02L540.39 266.97L539.63 267.88L538.84 268.77L538.02 269.63L537.16 270.45L536.27 271.25L535.35 272L534.41 272.73L533.43 273.41L532.43 274.06L531.4 274.67L530.35 275.25L529.27 275.78L528.17 276.27L527.05 276.72L525.91 277.13L524.74 277.49L523.56 277.81L522.36 278.08L521.15 278.3L519.91 278.48L518.67 278.61L517.4 278.68L516.13 278.71L514.85 278.68L513.59 278.61L512.35 278.48L511.11 278.3L509.9 278.08L508.7 277.81L507.51 277.49L506.35 277.13L505.21 276.72L504.09 276.27L502.99 275.78L501.91 275.25L500.86 274.67L499.83 274.06L498.83 273.41L497.85 272.73L496.9 272L495.99 271.24L495.1 270.45L494.24 269.63L493.42 268.77L492.62 267.88L491.87 266.96L491.14 266.02L490.46 265.04L489.81 264.04L489.19 263.01L488.62 261.96L488.09 260.88L487.6 259.78L487.15 258.66L486.74 257.52L486.38 256.35L486.06 255.17L485.79 253.97L485.57 252.76L485.39 251.52L485.26 250.28L485.19 249.02L485.16 247.74L485.16 247.63L485.16 247.52L485.16 247.42L485.17 247.31L485.17 247.2L485.18 247.09L485.18 246.99L485.19 246.88L485.19 246.77L485.2 246.67L485.21 246.56L485.22 246.46L485.23 246.35L485.24 246.24L485.25 246.14L485.26 246.03L485.27 245.93L485.28 245.82L485.29 245.72L485.3 245.61L485.32 245.51L485.33 245.4L485.34 245.3L485.36 245.19L485.37 245.09L485.38 244.98L485.4 244.88L485.41 244.77L485.43 244.67L485.44 244.56L485.46 244.46L485.47 244.35L485.49 244.25L485.52 244.04L485.53 243.94L485.55 243.83L485.56 243.73L485.58 243.62L485.59 243.52L444.26 218.73L443.84 219.11L443.42 219.48L442.99 219.85L442.55 220.21L442.1 220.56L441.65 220.91L441.2 221.25L440.73 221.57L440.26 221.89L439.79 222.21L439.3 222.51L438.82 222.81L438.32 223.09L437.83 223.37L437.32 223.64L436.81 223.9L436.3 224.15L435.78 224.39L435.25 224.62L434.72 224.84L434.19 225.06L433.65 225.26L433.1 225.45L432.55 225.63L432 225.81L431.44 225.97L430.88 226.12L430.31 226.26L429.74 226.39L429.17 226.51L428.59 226.62L428.01 226.72L427.42 226.81L426.83 226.88L426.24 226.95L425.64 227L425.04 227.04L424.44 227.07L423.83 227.09L423.22 227.1L422.91 227.1L422.6 227.09L422.29 227.08L421.98 227.07L421.67 227.06L421.37 227.04L421.06 227.02L420.75 227L420.45 226.97L420.15 226.94L419.84 226.91L419.54 226.87L419.24 226.84L418.94 226.8L418.64 226.75L418.34 226.7L418.04 226.65L417.74 226.6L417.45 226.55L417.15 226.49L416.86 226.43L416.57 226.36L416.28 226.3L415.98 226.23L415.69 226.15L415.41 226.08L415.12 226L414.83 225.92L414.55 225.84L414.26 225.75L413.98 225.66L413.7 225.57L413.41 225.48L413.13 225.38L412.86 225.29L412.58 225.18L412.3 225.08L412.03 224.97L411.75 224.87L411.48 224.75L347.07 305.27L347.24 305.6L347.42 305.94L347.59 306.27L347.76 306.61L347.92 306.95L348.08 307.29L348.24 307.63L348.39 307.98L348.54 308.33L348.69 308.68L348.83 309.03L348.97 309.38L349.1 309.74L349.23 310.09L349.36 310.45L349.48 310.81L349.59 311.18L349.71 311.54L349.81 311.91L349.92 312.28L350.02 312.65L350.11 313.02L350.2 313.39L350.29 313.77L350.37 314.15L350.44 314.53L350.51 314.91L350.58 315.29L350.64 315.67L350.7 316.06L350.75 316.45L350.79 316.84L350.83 317.23L350.87 317.62L350.9 318.01L350.92 318.41L350.94 318.8L350.96 319.2L350.96 319.6L350.97 320L350.95 321.01L350.9 322L350.82 322.99L350.71 323.97L350.57 324.93L350.4 325.89L350.2 326.84L349.97 327.78L349.71 328.7L349.43 329.61L349.11 330.51L348.77 331.4L348.41 332.27L348.01 333.13L347.6 333.98L347.15 334.81L346.68 335.62L346.19 336.42L345.68 337.21L345.14 337.97L344.58 338.72L344 339.45L343.39 340.17L342.77 340.86L342.12 341.54L341.46 342.19L340.77 342.83L340.07 343.45L339.34 344.04L338.6 344.62L337.85 345.17L337.07 345.7L336.28 346.2L335.47 346.69L334.65 347.15L333.81 347.58L332.96 347.99L332.09 348.38L331.22 348.74L330.32 349.07L330.32 578.07L320 578.07L309.38 577.85L298.87 577.21L288.47 576.15L278.2 574.68L268.06 572.81L258.06 570.55L248.21 567.91L238.52 564.89L228.99 561.5L219.65 557.75L210.48 553.66L201.5 549.22L192.73 544.45L184.16 539.35L175.81 533.93L167.69 528.21L159.8 522.19L152.15 515.87L144.75 509.27L137.6 502.4L130.73 495.25L124.13 487.85L117.81 480.21L111.79 472.31L106.07 464.19L100.65 455.84L95.55 447.27L90.78 438.5L86.34 429.52L82.24 420.36L78.5 411.01L75.11 401.48L72.09 391.79L69.44 381.94L67.18 371.95L65.31 361.81L63.85 351.53L62.79 341.14L62.15 330.62L61.93 320L62.15 309.38L62.79 298.87L63.85 288.47L65.31 278.2L67.18 268.06L69.44 258.06L72.09 248.21L75.11 238.52L78.5 229L82.24 219.65L86.34 210.48L90.78 201.51L95.55 192.73L100.65 184.17L106.07 175.82L111.79 167.69L117.81 159.8L124.13 152.15L130.73 144.75L137.6 137.61L144.74 130.73L152.14 124.13L159.79 117.82L167.69 111.79L175.81 106.07L184.16 100.66L192.73 95.56L201.5 90.78L210.48 86.35L219.64 82.25L228.99 78.5L238.52 75.11L248.21 72.09L258.06 69.45L268.05 67.19L278.19 65.32L288.47 63.85L298.86 62.79L309.38 62.15L320 61.94L330.32 61.94L330.32 290.93L330.36 290.95ZM205.44 464.87L203.81 465.77L202.21 466.67L200.63 467.57L199.07 468.47L197.53 469.37L196.01 470.26L194.52 471.16L193.05 472.06L191.6 472.95L190.17 473.84L188.77 474.72L187.39 475.61L186.03 476.48L184.7 477.36L183.39 478.22L182.1 479.08L180.84 479.94L179.61 480.79L178.39 481.63L177.21 482.46L176.04 483.28L174.91 484.09L173.79 484.89L172.71 485.69L171.64 486.47L170.61 487.24L169.6 488L168.61 488.74L167.65 489.47L166.72 490.19L165.82 490.9L164.94 491.59L164.09 492.26L163.26 492.92L162.46 493.57L161.69 494.19L160.95 494.8L160.24 495.39L162.77 497.66L165.33 499.9L167.92 502.1L170.54 504.27L173.2 506.39L175.88 508.48L178.6 510.53L181.34 512.55L184.12 514.52L186.92 516.46L189.76 518.35L192.62 520.21L195.51 522.03L198.43 523.8L201.37 525.54L204.34 527.23L207.34 528.88L210.37 530.49L213.41 532.06L216.49 533.58L219.59 535.06L222.71 536.5L225.86 537.89L229.03 539.24L232.23 540.54L235.45 541.8L238.69 543.01L241.95 544.18L245.24 545.3L248.54 546.37L251.87 547.4L255.22 548.37L258.58 549.3L261.97 550.18L265.38 551.02L268.8 551.8L272.24 552.53L275.71 553.21L279.19 553.85L282.68 554.43L281 553.04L279.3 551.62L277.57 550.14L275.81 548.63L274.04 547.07L272.25 545.46L270.43 543.81L268.6 542.12L266.76 540.38L264.9 538.59L263.02 536.76L261.14 534.89L259.24 532.96L257.33 531L255.42 528.98L253.5 526.92L251.57 524.81L249.64 522.66L247.7 520.46L245.77 518.21L243.83 515.92L241.9 513.57L239.97 511.18L238.04 508.75L236.11 506.26L234.2 503.73L232.29 501.14L230.38 498.51L228.49 495.83L226.61 493.1L224.75 490.33L222.9 487.5L221.06 484.62L219.24 481.7L217.44 478.72L215.66 475.69L213.9 472.62L212.16 469.49L210.44 466.31L208.75 463.08L207.08 463.98L205.44 464.87ZM305.06 434.29L302.77 434.46L300.49 434.67L298.22 434.89L295.97 435.14L293.72 435.41L291.49 435.7L289.27 436.01L287.06 436.35L284.87 436.7L282.68 437.08L280.51 437.47L278.36 437.89L276.21 438.32L274.08 438.77L271.96 439.24L269.86 439.73L267.76 440.23L265.69 440.76L263.62 441.3L261.57 441.85L259.54 442.42L257.52 443.01L255.51 443.61L253.52 444.22L251.54 444.85L249.58 445.5L247.63 446.15L245.7 446.82L243.78 447.5L241.88 448.2L239.99 448.9L238.12 449.62L236.26 450.34L234.42 451.08L232.6 451.83L230.79 452.58L229 453.35L227.23 454.12L229.21 457.89L231.23 461.58L233.27 465.19L235.35 468.73L237.46 472.19L239.59 475.58L241.74 478.89L243.92 482.13L246.11 485.3L248.32 488.39L250.54 491.41L252.77 494.36L255.01 497.24L257.26 500.05L259.51 502.78L261.76 505.45L264.01 508.04L266.25 510.56L268.49 513.02L270.72 515.4L272.94 517.72L275.15 519.97L277.33 522.15L279.5 524.26L281.65 526.3L283.78 528.28L285.87 530.19L287.95 532.04L289.98 533.81L291.99 535.53L293.96 537.18L295.89 538.76L297.78 540.28L299.63 541.74L301.43 543.13L303.19 544.46L304.89 545.72L306.54 546.93L308.14 548.07L309.68 549.15L309.68 434L307.36 434.13L305.06 434.29ZM83.06 334.66L83.37 338.97L83.75 343.26L84.2 347.52L84.73 351.77L85.34 355.99L86.02 360.19L86.77 364.36L87.6 368.51L88.5 372.63L89.47 376.72L90.51 380.79L91.62 384.83L92.8 388.84L94.04 392.81L95.36 396.76L96.74 400.68L98.19 404.57L99.7 408.43L101.28 412.25L102.93 416.04L104.64 419.79L106.41 423.51L108.24 427.19L110.13 430.84L112.09 434.45L114.11 438.02L116.18 441.55L118.32 445.05L120.51 448.5L122.76 451.92L125.07 455.29L127.43 458.62L129.85 461.91L132.32 465.16L134.85 468.36L137.43 471.52L140.06 474.63L142.75 477.69L145.49 480.71L146.25 480.06L147.05 479.39L147.89 478.69L148.75 477.97L149.65 477.24L150.58 476.48L151.54 475.71L152.54 474.92L153.56 474.11L154.62 473.29L155.7 472.45L156.82 471.59L157.97 470.72L159.15 469.84L160.36 468.94L161.6 468.03L162.87 467.11L164.17 466.17L165.5 465.23L166.85 464.28L168.24 463.32L169.66 462.35L171.1 461.37L172.58 460.38L174.08 459.39L175.61 458.39L177.17 457.38L178.75 456.38L180.37 455.36L182.01 454.35L183.68 453.33L185.37 452.31L187.09 451.29L188.84 450.26L190.62 449.24L192.42 448.22L194.25 447.2L196.1 446.18L197.98 445.16L199.88 444.15L199.21 442.54L198.55 440.87L197.88 439.14L197.22 437.34L196.56 435.48L195.91 433.55L195.26 431.56L194.61 429.51L193.97 427.39L193.33 425.21L192.69 422.97L192.06 420.67L191.43 418.3L190.8 415.86L190.18 413.37L189.56 410.81L188.94 408.18L188.33 405.5L187.72 402.74L187.11 399.93L186.51 397.05L185.91 394.11L185.32 391.11L184.73 388.04L184.14 384.91L183.55 381.71L182.97 378.46L182.39 375.13L181.82 371.75L181.25 368.3L180.68 364.79L180.11 361.21L179.55 357.57L178.99 353.87L178.44 350.11L177.89 346.28L177.34 342.38L176.8 338.43L176.26 334.41L175.72 330.32L82.84 330.32L83.06 334.66ZM196.48 333.4L196.62 336.44L196.78 339.46L196.97 342.46L197.18 345.43L197.42 348.38L197.69 351.31L197.98 354.21L198.29 357.09L198.63 359.95L198.99 362.78L199.38 365.59L199.79 368.38L200.22 371.14L200.68 373.89L201.15 376.6L201.65 379.3L202.18 381.98L202.72 384.63L203.28 387.26L203.87 389.86L204.47 392.45L205.09 395.01L205.74 397.55L206.4 400.07L207.08 402.56L207.78 405.03L208.5 407.48L209.24 409.91L209.99 412.32L210.76 414.7L211.55 417.07L212.35 419.41L213.18 421.73L214.01 424.03L214.86 426.3L215.73 428.56L216.61 430.79L217.51 433L218.42 435.19L219.73 434.62L221.09 434.06L222.51 433.49L223.97 432.93L225.48 432.36L227.04 431.8L228.65 431.24L230.31 430.68L232.02 430.12L233.78 429.56L235.59 429.01L237.45 428.45L239.36 427.9L241.32 427.34L243.33 426.79L245.39 426.24L247.5 425.69L249.65 425.14L251.86 424.59L254.12 424.04L256.42 423.5L258.78 422.95L261.19 422.41L263.64 421.87L266.15 421.33L268.7 420.79L271.31 420.25L273.96 419.71L276.66 419.17L279.42 418.64L282.22 418.1L285.07 417.57L287.97 417.04L290.92 416.5L293.93 415.97L296.98 415.44L300.08 414.92L303.23 414.39L306.43 413.86L309.68 413.34L309.69 413.34L309.69 349.08L309.04 348.84L308.39 348.58L307.75 348.32L307.12 348.03L306.5 347.74L305.89 347.43L305.28 347.11L304.68 346.77L304.09 346.42L303.51 346.06L302.94 345.69L302.37 345.31L301.82 344.91L301.27 344.5L300.74 344.08L300.21 343.65L299.69 343.21L299.19 342.75L298.69 342.29L298.21 341.82L297.73 341.33L297.27 340.83L296.81 340.33L296.37 339.81L295.94 339.28L295.52 338.75L295.11 338.2L294.71 337.65L294.33 337.08L293.96 336.51L293.6 335.93L293.25 335.34L292.91 334.74L292.59 334.13L292.28 333.52L291.99 332.9L291.71 332.27L291.44 331.63L291.18 330.98L290.94 330.33L196.38 330.33L196.48 333.4ZM317.26 310.05L315.99 310.49L314.8 311.09L313.7 311.83L312.71 312.71L311.83 313.7L311.09 314.8L310.49 315.99L310.05 317.26L309.77 318.6L309.68 320L309.77 321.4L310.05 322.74L310.49 324.01L311.09 325.2L311.83 326.3L312.71 327.29L313.7 328.17L314.8 328.91L315.99 329.51L317.26 329.95L318.6 330.23L320 330.32L321.4 330.23L322.74 329.95L324.01 329.51L325.2 328.91L326.3 328.17L327.29 327.29L328.17 326.3L328.91 325.2L329.51 324.01L329.95 322.74L330.23 321.4L330.32 320L330.23 318.6L329.96 317.26L329.51 315.99L328.91 314.8L328.17 313.7L327.3 312.71L326.3 311.83L325.21 311.09L324.01 310.49L322.74 310.05L321.4 309.77L320 309.68L318.6 309.77L317.26 310.05ZM140.06 165.37L137.43 168.48L134.85 171.64L132.32 174.84L129.85 178.09L127.43 181.37L125.07 184.71L122.76 188.08L120.51 191.5L118.32 194.95L116.19 198.45L114.11 201.98L112.09 205.55L110.14 209.16L108.24 212.81L106.41 216.49L104.64 220.21L102.93 223.97L101.29 227.75L99.71 231.58L98.19 235.43L96.74 239.32L95.36 243.24L94.05 247.19L92.8 251.17L91.62 255.18L90.51 259.22L89.47 263.28L88.5 267.38L87.6 271.5L86.77 275.64L86.02 279.82L85.34 284.01L84.73 288.23L84.2 292.48L83.75 296.75L83.37 301.04L83.06 305.35L82.84 309.68L175.72 309.68L175.83 306.35L175.98 303.05L176.15 299.77L176.35 296.52L176.58 293.29L176.84 290.09L177.12 286.91L177.44 283.76L177.78 280.63L178.15 277.53L178.55 274.46L178.97 271.4L179.41 268.38L179.89 265.38L180.39 262.4L180.91 259.45L181.46 256.52L182.03 253.62L182.62 250.74L183.24 247.88L183.88 245.05L184.54 242.25L185.23 239.47L185.94 236.71L186.67 233.98L187.42 231.27L188.18 228.59L188.97 225.92L189.78 223.29L190.61 220.68L191.46 218.09L192.33 215.52L193.21 212.98L194.12 210.46L195.04 207.97L195.97 205.5L196.93 203.05L197.9 200.63L198.89 198.23L199.89 195.85L197.98 194.84L196.1 193.82L194.25 192.8L192.42 191.78L190.62 190.76L188.84 189.74L187.1 188.72L185.37 187.69L183.68 186.67L182.01 185.65L180.37 184.64L178.75 183.63L177.17 182.62L175.61 181.61L174.08 180.61L172.58 179.62L171.11 178.64L169.66 177.66L168.24 176.69L166.86 175.72L165.5 174.77L164.17 173.83L162.87 172.89L161.6 171.97L160.36 171.06L159.15 170.16L157.97 169.28L156.82 168.41L155.71 167.55L154.62 166.71L153.56 165.89L152.54 165.08L151.54 164.29L150.58 163.51L149.65 162.76L148.75 162.02L147.89 161.3L147.05 160.61L146.25 159.93L145.49 159.28L142.75 162.3L140.06 165.37ZM216.3 209.07L215.43 211.3L214.57 213.55L213.73 215.83L212.91 218.12L212.1 220.44L211.31 222.78L210.53 225.14L209.77 227.53L209.03 229.93L208.3 232.36L207.59 234.81L206.9 237.29L206.23 239.78L205.58 242.3L204.94 244.84L204.33 247.41L203.73 249.99L203.16 252.6L202.6 255.23L202.07 257.89L201.55 260.57L201.06 263.27L200.59 265.99L200.14 268.74L199.72 271.51L199.31 274.31L198.93 277.13L198.57 279.97L198.24 282.83L197.93 285.72L197.64 288.63L197.38 291.57L197.15 294.53L196.94 297.51L196.75 300.51L196.59 303.55L196.46 306.6L196.36 309.68L290.93 309.68L291.17 309.03L291.43 308.38L291.7 307.74L291.98 307.11L292.27 306.49L292.58 305.88L292.9 305.27L293.24 304.67L293.59 304.08L293.95 303.5L294.32 302.93L294.7 302.36L295.1 301.81L295.51 301.26L295.93 300.73L296.36 300.2L296.8 299.68L297.26 299.18L297.72 298.68L298.2 298.2L298.68 297.72L299.18 297.26L299.68 296.8L300.2 296.36L300.73 295.93L301.26 295.51L301.81 295.1L302.36 294.7L302.93 294.32L303.5 293.95L304.08 293.59L304.67 293.24L305.27 292.9L305.88 292.58L306.49 292.27L307.11 291.98L307.74 291.7L308.38 291.43L309.03 291.17L309.68 290.93L309.68 226.66L307.09 226.53L304.5 226.38L301.94 226.19L299.38 225.98L296.85 225.74L294.32 225.48L291.81 225.19L289.32 224.88L286.83 224.54L284.37 224.18L281.92 223.79L279.48 223.39L277.06 222.96L274.66 222.51L272.27 222.04L269.9 221.54L267.54 221.03L265.2 220.5L262.87 219.94L260.56 219.37L258.27 218.78L256 218.17L253.74 217.55L251.5 216.91L249.27 216.25L247.07 215.57L244.88 214.88L242.71 214.17L240.55 213.45L238.42 212.71L236.3 211.97L234.2 211.2L232.12 210.43L230.06 209.64L228.01 208.84L225.99 208.03L223.98 207.21L221.99 206.37L220.03 205.53L218.08 204.68L217.18 206.86L216.3 209.07ZM513.39 237.79L512.12 238.23L510.92 238.83L509.83 239.57L508.83 240.45L507.96 241.44L507.22 242.54L506.62 243.73L506.18 245L505.9 246.35L505.81 247.74L505.9 249.14L506.18 250.48L506.62 251.76L507.22 252.95L507.96 254.05L508.83 255.04L509.83 255.91L510.92 256.65L512.12 257.25L513.39 257.7L514.73 257.97L516.13 258.07L517.53 257.97L518.87 257.7L520.14 257.25L521.33 256.65L522.43 255.91L523.42 255.04L524.3 254.05L525.04 252.95L525.64 251.76L526.08 250.48L526.36 249.14L526.45 247.74L526.36 246.35L526.08 245L525.64 243.73L525.04 242.54L524.3 241.44L523.42 240.45L522.43 239.57L521.33 238.83L520.14 238.23L518.87 237.79L517.53 237.51L516.13 237.42L514.73 237.51L513.39 237.79ZM420.49 186.18L419.21 186.62L418.02 187.22L416.92 187.96L415.93 188.83L415.06 189.83L414.32 190.92L413.72 192.12L413.27 193.39L413 194.73L412.9 196.13L413 197.53L413.27 198.87L413.72 200.14L414.32 201.33L415.06 202.43L415.93 203.42L416.92 204.3L418.02 205.04L419.21 205.64L420.49 206.08L421.83 206.36L423.23 206.45L424.62 206.36L425.97 206.08L427.24 205.64L428.43 205.04L429.53 204.3L430.52 203.42L431.39 202.43L432.14 201.33L432.74 200.14L433.18 198.87L433.46 197.53L433.55 196.13L433.46 194.73L433.18 193.39L432.74 192.12L432.14 190.92L431.4 189.83L430.52 188.83L429.53 187.96L428.43 187.22L427.24 186.62L425.97 186.18L424.62 185.9L423.23 185.81L421.83 185.9L420.49 186.18ZM306.52 92.84L304.85 94.03L303.13 95.28L301.37 96.6L299.55 97.98L297.69 99.42L295.78 100.93L293.84 102.5L291.85 104.14L289.83 105.84L287.78 107.61L285.69 109.44L283.58 111.34L281.44 113.31L279.28 115.35L277.1 117.45L274.9 119.63L272.68 121.87L270.45 124.18L268.21 126.56L265.96 129.01L263.7 131.54L261.44 134.13L259.18 136.8L256.92 139.54L254.67 142.35L252.42 145.23L250.18 148.19L247.95 151.22L245.74 154.33L243.54 157.51L241.36 160.77L239.2 164.1L237.06 167.51L234.95 170.99L232.87 174.56L230.82 178.2L228.81 181.92L226.83 185.71L228.03 186.23L229.28 186.76L230.57 187.28L231.91 187.8L233.29 188.32L234.71 188.83L236.19 189.35L237.7 189.87L239.26 190.38L240.86 190.9L242.51 191.41L244.2 191.93L245.94 192.44L247.72 192.95L249.55 193.46L251.42 193.97L253.34 194.48L255.3 194.99L257.3 195.5L259.35 196.01L261.44 196.52L263.58 197.02L265.76 197.53L267.99 198.03L270.26 198.54L272.58 199.04L274.94 199.54L277.34 200.05L279.79 200.55L282.29 201.05L284.83 201.55L287.41 202.04L290.04 202.54L292.71 203.04L295.43 203.54L298.19 204.03L300.99 204.53L303.84 205.02L306.74 205.52L309.68 206.01L309.68 90.64L308.13 91.71L306.52 92.84ZM275.71 86.79L272.25 87.47L268.8 88.2L265.38 88.99L261.97 89.82L258.59 90.7L255.22 91.63L251.87 92.61L248.55 93.63L245.24 94.7L241.96 95.82L238.7 96.99L235.46 98.2L232.24 99.46L229.04 100.76L225.87 102.11L222.72 103.5L219.6 104.94L216.5 106.42L213.42 107.95L210.37 109.51L207.35 111.12L204.35 112.77L201.38 114.47L198.43 116.2L195.52 117.98L192.63 119.79L189.76 121.65L186.93 123.55L184.12 125.48L181.35 127.46L178.6 129.47L175.89 131.52L173.2 133.61L170.54 135.74L167.92 137.9L165.33 140.1L162.77 142.34L160.24 144.61L160.95 145.2L161.69 145.81L162.46 146.44L163.26 147.08L164.09 147.74L164.94 148.41L165.82 149.1L166.72 149.81L167.65 150.53L168.61 151.26L169.6 152L170.61 152.76L171.64 153.53L172.71 154.31L173.79 155.11L174.91 155.91L176.04 156.72L177.21 157.54L178.39 158.37L179.61 159.21L180.84 160.06L182.1 160.91L183.39 161.77L184.7 162.64L186.03 163.51L187.39 164.39L188.77 165.27L190.17 166.16L191.6 167.05L193.05 167.94L194.52 168.84L196.01 169.73L197.53 170.63L199.07 171.53L200.63 172.43L202.21 173.33L203.81 174.23L205.44 175.13L207.08 176.03L208.75 176.92L210.44 173.69L212.16 170.51L213.9 167.39L215.66 164.31L217.44 161.28L219.24 158.31L221.06 155.38L222.9 152.5L224.75 149.68L226.61 146.9L228.49 144.17L230.38 141.49L232.29 138.86L234.2 136.28L236.11 133.74L238.04 131.26L239.97 128.82L241.9 126.43L243.83 124.09L245.77 121.79L247.7 119.54L249.64 117.34L251.57 115.19L253.5 113.08L255.42 111.02L257.33 109.01L259.24 107.04L261.14 105.12L263.02 103.24L264.9 101.41L266.76 99.63L268.6 97.89L270.43 96.19L272.25 94.54L274.04 92.94L275.81 91.38L277.57 89.86L279.3 88.39L281 86.96L282.68 85.57L279.19 86.16L275.71 86.79ZM606.29 103.6L605.02 104.04L603.83 104.64L602.73 105.38L601.74 106.26L600.86 107.25L600.12 108.35L599.52 109.54L599.08 110.81L598.8 112.15L598.71 113.55L598.8 114.95L599.08 116.29L599.52 117.56L600.12 118.76L600.86 119.85L601.74 120.85L602.73 121.72L603.83 122.46L605.02 123.06L606.29 123.5L607.64 123.78L609.03 123.87L610.43 123.78L611.77 123.5L613.05 123.06L614.24 122.46L615.34 121.72L616.33 120.85L617.2 119.85L617.94 118.76L618.54 117.56L618.99 116.29L619.26 114.95L619.36 113.55L619.26 112.15L618.99 110.81L618.54 109.54L617.94 108.35L617.2 107.25L616.33 106.26L615.34 105.38L614.24 104.64L613.05 104.04L611.77 103.6L610.43 103.32L609.03 103.23L607.64 103.32L606.29 103.6Z" id="b1g0QomPsm"></path></defs><g><g><g><use xlink:href="#g4lCRvvafB" opacity="1" fill="#f9d749" fill-opacity="1"></use><g><use xlink:href="#g4lCRvvafB" opacity="1" fill-opacity="0" stroke="#000000" stroke-width="1" stroke-opacity="0"></use></g></g><g><use xlink:href="#bhGWEq8Lt" opacity="1" fill="#000000" fill-opacity="1"></use><g><use xlink:href="#bhGWEq8Lt" opacity="1" fill-opacity="0" stroke="#000000" stroke-width="1" stroke-opacity="0"></use></g></g><g><use xlink:href="#d4mgPEnPxa" opacity="1" fill="#000000" fill-opacity="1"></use><g><use xlink:href="#d4mgPEnPxa" opacity="1" fill-opacity="0" stroke="#000000" stroke-width="1" stroke-opacity="0"></use></g></g><g><use xlink:href="#e3SzIijJ2f" opacity="1" fill="#000000" fill-opacity="1"></use><g><use xlink:href="#e3SzIijJ2f" opacity="1" fill-opacity="0" stroke="#000000" stroke-width="1" stroke-opacity="0"></use></g></g><g><use xlink:href="#kOnMczUo0" opacity="1" fill="#000000" fill-opacity="1"></use><g><use xlink:href="#kOnMczUo0" opacity="1" fill-opacity="0" stroke="#000000" stroke-width="1" stroke-opacity="0"></use></g></g><g><use xlink:href="#a16iKWIZet" opacity="1" fill="#000000" fill-opacity="1"></use><g><use xlink:href="#a16iKWIZet" opacity="1" fill-opacity="0" stroke="#000000" stroke-width="1" stroke-opacity="0"></use></g></g><g><use xlink:href="#axhH6vlHk" opacity="1" fill="#000000" fill-opacity="1"></use><g><use xlink:href="#axhH6vlHk" opacity="1" fill-opacity="0" stroke="#000000" stroke-width="1" stroke-opacity="0"></use></g></g><g><use xlink:href="#c2MBQHKYqR" opacity="1" fill="#000000" fill-opacity="1"></use><g><use xlink:href="#c2MBQHKYqR" opacity="1" fill-opacity="0" stroke="#000000" stroke-width="1" stroke-opacity="0"></use></g></g><g><use xlink:href="#b1D1HXEQfz" opacity="1" fill="#000000" fill-opacity="1"></use><g><use xlink:href="#b1D1HXEQfz" opacity="1" fill-opacity="0" stroke="#000000" stroke-width="1" stroke-opacity="0"></use></g></g><g><use xlink:href="#b2Qz5DgpwR" opacity="1" fill="#000000" fill-opacity="1"></use><g><use xlink:href="#b2Qz5DgpwR" opacity="1" fill-opacity="0" stroke="#000000" stroke-width="1" stroke-opacity="0"></use></g></g><g><use xlink:href="#aRQiWvr8w" opacity="1" fill="#000000" fill-opacity="1"></use><g><use xlink:href="#aRQiWvr8w" opacity="1" fill-opacity="0" stroke="#000000" stroke-width="1" stroke-opacity="0"></use></g></g><g><use xlink:href="#bSvlbN36S" opacity="1" fill="#000000" fill-opacity="1"></use><g><use xlink:href="#bSvlbN36S" opacity="1" fill-opacity="0" stroke="#000000" stroke-width="1" stroke-opacity="0"></use></g></g><g><use xlink:href="#h2V7TcpSVp" opacity="1" fill="#000000" fill-opacity="1"></use><g><use xlink:href="#h2V7TcpSVp" opacity="1" fill-opacity="0" stroke="#000000" stroke-width="1" stroke-opacity="0"></use></g></g><g><use xlink:href="#b3EJwDC1Ax" opacity="1" fill="#000000" fill-opacity="1"></use><g><use xlink:href="#b3EJwDC1Ax" opacity="1" fill-opacity="0" stroke="#000000" stroke-width="1" stroke-opacity="0"></use></g></g><g><use xlink:href="#b1g0QomPsm" opacity="1" fill="#000000" fill-opacity="1"></use><g><use xlink:href="#b1g0QomPsm" opacity="1" fill-opacity="0" stroke="#000000" stroke-width="1" stroke-opacity="0"></use></g></g></g></g></svg>